<svg xmlns="http://www.w3.org/2000/svg" viewBox="0 0 100 100">
  <style>
    @media (prefers-color-scheme: dark) {
      svg { fill: white; }
    }
  </style>
  <path d="m 55.941406,12.748047 c -4.667328,0 -8.944129,2.644137 -11.03125,6.818359 l -9.9375,19.875 c -1.305544,2.611951 -3.963225,4.253907 -6.882812,4.253906 H 3.3300781 a 2.32004,2.32004 0 0 0 -2.3183593,2.320313 2.32004,2.32004 0 0 0 2.3183593,2.320313 H 28.089844 c 4.666708,0 8.945797,-2.643556 11.033203,-6.81836 v -0.002 l 9.9375,-19.875 c 1.305604,-2.611196 3.960867,-4.253906 6.880859,-4.253906 H 80.701172 A 2.32004,2.32004 0 0 0 83.021484,15.068312 2.32004,2.32004 0 0 0 80.701172,12.748 Z m 7.626953,15.367187 c -4.667112,0 -8.945905,2.643776 -11.033203,6.81836 l -9.9375,19.876953 C 41.292052,57.421744 38.634844,59.0625 35.714844,59.0625 H 10.957031 a 2.32004,2.32004 0 0 0 -2.3203122,2.320312 2.32004,2.32004 0 0 0 2.3203122,2.320313 h 24.757813 c 4.667333,0 8.946083,-2.644138 11.033203,-6.818359 l 9.9375,-19.875 c 1.305422,-2.610839 3.963165,-4.253907 6.882812,-4.253907 h 24.757813 a 2.32004,2.32004 0 0 0 2.320312,-2.320312 2.32004,2.32004 0 0 0 -2.320312,-2.320313 z m 8.341797,15.548828 c -4.667446,0 -8.94429,2.645012 -11.03125,6.820313 L 48.171875,75.894531 a 2.32004,2.32004 0 0 0 1.037109,3.113281 2.32004,2.32004 0 0 0 3.113282,-1.037109 L 65.029297,52.558594 c 1.30572,-2.612305 3.960966,-4.253908 6.880859,-4.253906 h 24.759766 a 2.32004,2.32004 0 0 0 2.318359,-2.320313 2.32004,2.32004 0 0 0 -2.318359,-2.320313 z" />
</svg>
